<svg width="128" height="133" viewBox="0 0 128 133" xmlns="http://www.w3.org/2000/svg">
<path d="M126.288 6.11294H92.8257C91.69 4.49316 90.4585 2.94149 89.1377 1.46607C88.9041 1.20507 88.6174 0.996137 88.2964 0.853053C87.9754 0.709969 87.6274 0.635986 87.2755 0.635986C86.9235 0.635986 86.5755 0.709969 86.2545 0.853053C85.9335 0.996137 85.6468 1.20507 85.4132 1.46607C84.0911 2.94093 82.8589 4.49264 81.7231 6.11294H1.71237C1.25822 6.11294 0.822675 6.29178 0.501543 6.61012C0.18041 6.92846 0 7.36022 0 7.81042L0 131.303C0 131.753 0.18041 132.185 0.501543 132.503C0.822675 132.821 1.25822 133 1.71237 133H126.288C126.742 133 127.177 132.821 127.498 132.503C127.82 132.185 128 131.753 128 131.303V7.81042C128 7.36022 127.82 6.92846 127.498 6.61012C127.177 6.29178 126.742 6.11294 126.288 6.11294ZM87.2755 5.1772C90.0362 8.47465 92.3133 12.1421 94.0393 16.0708C91.5741 17.3549 89.2743 18.9294 87.1898 20.7601C85.1535 18.9491 82.9006 17.3927 80.4816 16.126C82.2108 12.1754 84.4984 8.48883 87.2755 5.1772ZM98.3545 54.2346V45.5222C98.3647 37.3957 95.3618 29.5489 89.9168 23.474C95.0154 19.0648 101.244 16.5291 107.773 16.2236V32.9078C107.758 36.9123 106.915 40.8713 105.295 44.5397C103.675 48.2081 101.313 51.5078 98.3545 54.2346ZM101.27 56.7808C99.8776 66.8863 95.682 76.41 89.1505 84.2907V64.08C93.6679 62.5329 97.7998 60.0473 101.27 56.7893V56.7808ZM3.10368 9.18963H79.7324C78.7033 10.9206 77.7812 12.7119 76.9712 14.5537C73.1924 13.1081 69.1763 12.3686 65.1259 12.3724H64.9589C64.448 12.3724 63.958 12.5736 63.5967 12.9317C63.2355 13.2899 63.0325 13.7756 63.0325 14.2821V32.9078C63.014 38.957 64.6926 44.8922 67.8807 50.0503C56.2562 58.8472 48.2998 71.5736 45.5256 85.8078C42.7019 82.1399 39.4557 78.8114 35.8528 75.8903V60.5131C41.0479 60.2459 45.9416 58.0134 49.5256 54.2758C53.1096 50.5382 55.1109 45.5802 55.1171 40.4234V26.8011C55.1171 26.2946 54.9141 25.8088 54.5528 25.4507C54.1915 25.0926 53.7016 24.8914 53.1906 24.8914C52.6797 24.8914 52.1897 25.0926 51.8284 25.4507C51.4672 25.8088 51.2642 26.2946 51.2642 26.8011V40.4234C51.2586 44.5672 49.6628 48.5536 46.8006 51.5737C43.9385 54.5938 40.0245 56.4213 35.8528 56.6853V19.6271C35.8528 19.1206 35.6499 18.6348 35.2886 18.2767C34.9273 17.9186 34.4373 17.7174 33.9264 17.7174C33.4155 17.7174 32.9255 17.9186 32.5642 18.2767C32.203 18.6348 32 19.1206 32 19.6271V40.6144C28.8884 40.0853 26.0654 38.4837 24.0289 36.0923C21.9925 33.7009 20.8736 30.6733 20.8696 27.5437V25.5279C20.8696 25.0215 20.6666 24.5357 20.3053 24.1776C19.9441 23.8195 19.4541 23.6183 18.9431 23.6183C18.4322 23.6183 17.9422 23.8195 17.581 24.1776C17.2197 24.5357 17.0167 25.0215 17.0167 25.5279V27.5437C17.0228 31.686 18.5449 35.6854 21.3005 38.7994C24.056 41.9134 27.8578 43.9305 32 44.4761V73.0151C23.4447 67.137 13.4781 63.597 3.10368 62.7517V9.18963ZM72.4741 60.963C71.9652 60.9213 71.4605 61.0816 71.0708 61.4086C70.681 61.7357 70.4382 62.2027 70.3957 62.7071C70.3807 62.8705 69.1478 76.1321 60.4169 86.3913L51.9898 96.311C51.0106 94.2697 49.9136 92.286 48.7042 90.3698C50.1899 78.0878 55.8042 66.6594 64.6421 57.9266C66.3535 56.2296 68.1739 54.6441 70.0918 53.18C73.0456 56.9142 76.7705 59.9794 81.0167 62.1703L72.1702 72.5674C73.8526 67.2755 74.21 63.3331 74.2357 63.0191C74.2748 62.516 74.1114 62.0181 73.7814 61.634C73.4513 61.25 72.9813 61.011 72.4741 60.9693V60.963ZM3.10368 129.923V100.839C10.2347 114.582 22.5006 125.019 37.2848 129.923H3.10368ZM53.7557 125.124L41.7691 111.013C33.0403 100.754 31.8052 87.4926 31.7924 87.3292C31.7498 86.8244 31.5067 86.3571 31.1165 86.03C30.7263 85.7029 30.2211 85.5428 29.7118 85.585C29.2026 85.6272 28.7312 85.8682 28.4012 86.255C28.0712 86.6418 27.9098 87.1427 27.9524 87.6475C27.9781 87.953 28.3355 91.8912 30.0158 97.1958L16.5629 81.3753C16.2306 80.9983 15.7623 80.7658 15.2588 80.7277C14.7553 80.6897 14.2568 80.8492 13.8707 81.1718C13.4846 81.4945 13.2418 81.9545 13.1944 82.4529C13.1471 82.9513 13.2991 83.4482 13.6177 83.8366L37.6037 112.057C33.2248 110.167 28.6217 108.836 23.9047 108.094C23.403 108.034 22.8975 108.172 22.4974 108.478C22.0972 108.784 21.8344 109.233 21.7656 109.73C21.6968 110.226 21.8275 110.729 22.1296 111.131C22.4316 111.533 22.8808 111.801 23.3803 111.877C23.5387 111.898 39.3118 114.156 47.0389 123.167L51.9813 128.981C41.7586 128.218 31.9455 124.678 23.6181 118.751C15.2908 112.824 8.77078 104.738 4.77324 95.3795C4.15108 93.9183 3.59456 92.433 3.10368 90.9236V66.5795C8.86108 67.0773 14.5037 68.4693 19.825 70.7044C26.4484 73.4756 32.466 77.4952 37.5438 82.5402C42.6353 87.5732 46.6924 93.5386 49.4898 100.105C52.3949 106.908 53.8845 114.222 53.8692 121.61C53.8692 122.783 53.8313 123.954 53.7557 125.124ZM85.2977 129.923H57.8355L57.2276 129.208C57.556 126.691 57.7211 124.155 57.722 121.616C57.7246 116.861 57.1497 112.123 56.0096 107.504C66.8756 105.685 77.0166 100.904 85.2977 93.6969V129.923ZM85.2977 88.4814C77.0551 96.6142 66.4444 101.976 54.9629 103.81C54.5777 102.6 54.1553 101.408 53.6958 100.232L55.1256 98.5496C62.8527 89.538 78.628 87.2804 78.7864 87.2592C79.288 87.185 79.7399 86.9176 80.044 86.5151C80.348 86.1126 80.4797 85.6075 80.4104 85.1094C80.341 84.6113 80.0763 84.1604 79.6737 83.8546C79.2711 83.5488 78.763 83.4127 78.2598 83.4759C73.5465 84.2186 68.9471 85.5504 64.5715 87.4395L84.6812 63.7829L85.2977 63.9951V88.4814ZM86.2245 25.1354C91.5433 30.6116 94.5107 37.9203 94.5017 45.5222V57.2455C92.2807 58.7024 89.8678 59.8491 87.3311 60.6532C75.2674 56.8338 66.8896 45.5095 66.8896 32.9078V16.2469C73.8349 16.6641 80.4013 19.5274 85.4047 24.3206L86.2245 25.1354ZM124.896 129.923H104.562C104.562 129.692 104.581 129.461 104.588 129.227C105.343 118.728 109.213 109.88 116.112 102.902C118.712 100.268 121.672 98.01 124.905 96.1922L124.896 129.923ZM124.896 91.8827C122.897 92.8269 118.227 95.3392 113.483 100.096C110.958 102.631 108.762 105.468 106.946 108.541C109.109 96.9232 112.648 85.5989 117.49 74.8039C119.67 69.9541 122.143 65.2392 124.896 60.685V91.8827ZM124.896 53.6065C122.67 56.802 118.411 63.4413 114.033 73.1127C111.119 79.5713 108.666 86.2249 106.692 93.0243C108.378 78.0467 110.889 63.1716 114.211 48.4652C114.267 48.2203 114.273 47.9669 114.23 47.7194C114.187 47.472 114.096 47.2353 113.96 47.023C113.825 46.8107 113.649 46.6269 113.442 46.4821C113.235 46.3372 113.002 46.2342 112.755 46.1789C112.507 46.1236 112.252 46.1171 112.002 46.1597C111.753 46.2024 111.514 46.2933 111.3 46.4274C111.086 46.5615 110.9 46.736 110.754 46.9412C110.608 47.1463 110.504 47.3779 110.448 47.6229C106.098 66.8712 103.134 86.402 101.58 106.067C100.194 100.57 98.4209 95.1758 96.274 89.9242C96.0693 89.4666 95.6915 89.107 95.222 88.9227C94.7525 88.7385 94.2288 88.7443 93.7636 88.939C93.2985 89.1337 92.929 89.5017 92.7347 89.9637C92.5405 90.4258 92.537 90.945 92.7251 91.4095C92.8064 91.5984 99.7159 107.981 100.645 124.209C100.589 126.73 100.581 128.665 100.587 129.919H89.1505V90.0282C99.119 79.7032 104.956 66.1347 105.572 51.856C109.531 46.3153 111.647 39.6886 111.625 32.8993V14.7001C111.69 14.4203 111.69 14.1298 111.625 13.8501C111.561 13.5704 111.433 13.3087 111.253 13.0844C111.072 12.8602 110.843 12.6791 110.582 12.5548C110.321 12.4304 110.036 12.3659 109.746 12.3661H109.104C105.152 12.3642 101.234 13.0835 97.5454 14.4879C96.7416 12.667 95.8281 10.8955 94.8099 9.18326H124.896V53.6065Z" fill="#000000"/>
</svg>
