<svg width="60" height="63" viewBox="0 0 60 63" fill="none" xmlns="http://www.w3.org/2000/svg">
<path d="M59.1311 2.90494H43.4814C42.9502 2.1474 42.3742 1.4217 41.7565 0.731662C41.6473 0.609598 41.5132 0.511883 41.3631 0.444964C41.2129 0.378046 41.0502 0.343445 40.8856 0.343445C40.721 0.343445 40.5583 0.378046 40.4081 0.444964C40.258 0.511883 40.1239 0.609598 40.0147 0.731662C39.3963 1.42144 38.82 2.14715 38.2888 2.90494H0.868849C0.656448 2.90494 0.452748 2.98859 0.302558 3.13747C0.152369 3.28635 0.0679932 3.48828 0.0679932 3.69884L0.0679932 61.4545C0.0679932 61.6651 0.152369 61.867 0.302558 62.0159C0.452748 62.1648 0.656448 62.2484 0.868849 62.2484H59.1311C59.3435 62.2484 59.5472 62.1648 59.6974 62.0159C59.8476 61.867 59.9319 61.6651 59.9319 61.4545V3.69884C59.9319 3.48828 59.8476 3.28635 59.6974 3.13747C59.5472 2.98859 59.3435 2.90494 59.1311 2.90494ZM40.8856 2.46731C42.1767 4.00949 43.2417 5.72469 44.049 7.56211C42.896 8.16268 41.8204 8.89905 40.8455 9.75524C39.8932 8.90824 38.8395 8.18035 37.7082 7.58792C38.5169 5.74027 39.5868 4.01612 40.8856 2.46731ZM46.0671 25.4108V21.3362C46.0719 17.5355 44.6675 13.8657 42.1209 11.0245C44.5055 8.96234 47.4186 7.77647 50.4718 7.63357V15.4365C50.4652 17.3094 50.0709 19.161 49.3132 20.8766C48.5556 22.5923 47.4508 24.1355 46.0671 25.4108ZM47.4306 26.6016C46.7795 31.3279 44.8172 35.782 41.7625 39.4677V30.0154C43.8752 29.2918 45.8077 28.1293 47.4306 26.6056V26.6016ZM1.51954 4.34387H37.3578C36.8765 5.15341 36.4453 5.99118 36.0664 6.85257C34.2991 6.17649 32.4209 5.83061 30.5265 5.83242H30.4484C30.2095 5.83242 29.9803 5.92652 29.8114 6.09401C29.6424 6.26151 29.5475 6.48868 29.5475 6.72555V15.4365C29.5388 18.2657 30.3239 21.0415 31.8149 23.4539C26.3783 27.5681 22.6572 33.5201 21.3597 40.1772C20.0391 38.4617 18.5209 36.9051 16.8359 35.5389V28.3472C19.2656 28.2222 21.5543 27.1781 23.2305 25.4301C24.9067 23.6821 25.8426 21.3633 25.8455 18.9515V12.5805C25.8455 12.3436 25.7506 12.1165 25.5816 11.949C25.4127 11.7815 25.1835 11.6874 24.9446 11.6874C24.7056 11.6874 24.4764 11.7815 24.3075 11.949C24.1385 12.1165 24.0436 12.3436 24.0436 12.5805V18.9515C24.041 20.8895 23.2946 22.7539 21.956 24.1663C20.6175 25.5788 18.7869 26.4335 16.8359 26.557V9.22532C16.8359 8.98845 16.741 8.76128 16.572 8.59378C16.4031 8.42629 16.1739 8.33219 15.9349 8.33219C15.696 8.33219 15.4668 8.42629 15.2979 8.59378C15.1289 8.76128 15.034 8.98845 15.034 9.22532V19.0408C13.5787 18.7934 12.2584 18.0443 11.306 16.9259C10.3536 15.8075 9.83029 14.3915 9.82842 12.9278V11.9851C9.82842 11.7482 9.7335 11.521 9.56453 11.3536C9.39557 11.1861 9.16641 11.092 8.92746 11.092C8.68851 11.092 8.45934 11.1861 8.29038 11.3536C8.12142 11.521 8.02649 11.7482 8.02649 11.9851V12.9278C8.02934 14.8651 8.74121 16.7356 10.0299 18.192C11.3187 19.6484 13.0967 20.5917 15.034 20.8469V34.1942C11.0328 31.4451 6.37151 29.7895 1.51954 29.3942V4.34387ZM33.9632 28.5576C33.7252 28.5381 33.4891 28.6131 33.3069 28.766C33.1246 28.919 33.011 29.1374 32.9912 29.3733C32.9841 29.4497 32.4075 35.652 28.3242 40.4501L24.383 45.0894C23.925 44.1347 23.4119 43.207 22.8463 42.3108C23.5412 36.5666 26.1669 31.2217 30.3003 27.1375C31.1007 26.3438 31.952 25.6023 32.849 24.9176C34.2305 26.664 35.9726 28.0976 37.9585 29.1223L33.821 33.9848C34.6079 31.5099 34.7751 29.6661 34.7871 29.5192C34.8053 29.2839 34.729 29.0511 34.5746 28.8714C34.4202 28.6918 34.2004 28.5801 33.9632 28.5606V28.5576ZM1.51954 60.8095V47.2071C4.85463 53.6346 10.5912 58.5158 17.5056 60.8095H1.51954ZM25.2088 58.5647L19.6029 51.9655C15.5205 47.1674 14.9429 40.9651 14.9369 40.8887C14.917 40.6527 14.8033 40.4341 14.6208 40.2811C14.4383 40.1281 14.202 40.0533 13.9638 40.073C13.7257 40.0927 13.5052 40.2055 13.3509 40.3864C13.1966 40.5672 13.121 40.8015 13.141 41.0376C13.153 41.1805 13.3201 43.0223 14.106 45.5032L7.81427 38.1042C7.65885 37.9279 7.43983 37.8191 7.20433 37.8013C6.96884 37.7835 6.73571 37.8581 6.55514 38.009C6.37457 38.1599 6.26099 38.3751 6.23886 38.6082C6.21672 38.8413 6.2878 39.0736 6.4368 39.2553L17.6548 52.4538C15.6068 51.5699 13.454 50.947 11.2479 50.6C11.0133 50.572 10.7769 50.6365 10.5897 50.7796C10.4026 50.9227 10.2797 51.133 10.2475 51.3651C10.2153 51.5973 10.2764 51.8327 10.4177 52.0205C10.559 52.2084 10.7691 52.3337 11.0027 52.3694C11.0768 52.3793 18.4536 53.4352 22.0675 57.6498L24.379 60.3689C19.598 60.0117 15.0085 58.3563 11.1139 55.5842C7.21928 52.8121 4.16997 49.0304 2.30038 44.6538C2.0094 43.9704 1.74912 43.2757 1.51954 42.5698V31.1844C4.21221 31.4172 6.85121 32.0682 9.3399 33.1135C12.4376 34.4096 15.2519 36.2895 17.6267 38.649C20.008 41.0029 21.9054 43.7928 23.2137 46.8638C24.5724 50.0455 25.2691 53.4664 25.2619 56.9214C25.2619 57.4698 25.2442 58.0176 25.2088 58.5647ZM39.9606 60.8095H27.1169L26.8326 60.4751C26.9862 59.2976 27.0634 58.1116 27.0638 56.9244C27.065 54.7004 26.7962 52.4844 26.263 50.3241C31.3449 49.4734 36.0877 47.2376 39.9606 43.8668V60.8095ZM39.9606 41.4276C36.1057 45.2312 31.1432 47.7388 25.7734 48.5964C25.5933 48.0308 25.3957 47.4731 25.1808 46.9233L25.8495 46.1364C29.4634 41.9218 36.8413 40.8659 36.9153 40.856C37.15 40.8213 37.3613 40.6962 37.5035 40.508C37.6457 40.3198 37.7073 40.0835 37.6749 39.8506C37.6424 39.6176 37.5187 39.4067 37.3303 39.2637C37.142 39.1207 36.9044 39.057 36.6691 39.0866C34.4647 39.434 32.3136 40.0568 30.2673 40.9403L39.6723 29.8765L39.9606 29.9757V41.4276ZM40.3941 11.8015C42.8816 14.3626 44.2694 17.7808 44.2652 21.3362V26.819C43.2265 27.5003 42.098 28.0366 40.9116 28.4127C35.2696 26.6265 31.3514 21.3302 31.3514 15.4365V7.64448C34.5996 7.83957 37.6706 9.17871 40.0107 11.4204L40.3941 11.8015ZM58.4804 60.8095H48.9702C48.9702 60.7013 48.9792 60.5931 48.9822 60.484C49.3356 55.5738 51.1455 51.4356 54.372 48.1717C55.588 46.9403 56.9723 45.884 58.4844 45.0338L58.4804 60.8095ZM58.4804 43.0183C57.5454 43.46 55.361 44.6349 53.1427 46.8598C51.9618 48.0451 50.9348 49.3719 50.0854 50.8094C51.0967 45.3757 52.7519 40.0795 55.0167 35.0308C56.0361 32.7626 57.1928 30.5575 58.4804 28.4276V43.0183ZM58.4804 25.1171C57.4393 26.6116 55.4471 29.7167 53.4 34.2399C52.0368 37.2605 50.8895 40.3722 49.9663 43.5522C50.7552 36.5474 51.9292 29.5905 53.483 22.7126C53.5091 22.598 53.5122 22.4795 53.4921 22.3638C53.472 22.248 53.4291 22.1374 53.3658 22.0381C53.3026 21.9388 53.2202 21.8528 53.1234 21.7851C53.0267 21.7173 52.9174 21.6692 52.8018 21.6433C52.6863 21.6174 52.5667 21.6144 52.45 21.6343C52.3332 21.6542 52.2216 21.6968 52.1214 21.7595C52.0212 21.8222 51.9345 21.9038 51.8662 21.9998C51.7979 22.0957 51.7493 22.204 51.7232 22.3186C49.6885 31.3208 48.3025 40.4551 47.5757 49.6523C46.9274 47.0813 46.0981 44.5585 45.0941 42.1024C44.9984 41.8884 44.8217 41.7202 44.6021 41.634C44.3825 41.5478 44.1376 41.5506 43.92 41.6416C43.7025 41.7327 43.5297 41.9048 43.4388 42.1209C43.348 42.337 43.3464 42.5798 43.4343 42.7971C43.4724 42.8854 46.7038 50.5474 47.1383 58.137C47.1122 59.316 47.1082 60.221 47.1112 60.8075H41.7625V42.151C46.4247 37.3222 49.1546 30.9764 49.4427 24.2984C51.294 21.7071 52.2836 18.6079 52.2738 15.4326V6.92105C52.3038 6.79021 52.3038 6.65433 52.2736 6.52351C52.2435 6.39269 52.1839 6.2703 52.0995 6.16541C52.015 6.06053 51.9078 5.97586 51.7858 5.9177C51.6638 5.85954 51.5302 5.82937 51.3948 5.82944H51.0945C49.2464 5.82859 47.4139 6.16498 45.6887 6.82181C45.3128 5.97017 44.8856 5.14171 44.4094 4.3409H58.4804V25.1171Z" fill="black" fill-opacity="0.5"/>
</svg>
